<svg width="25" height="24" viewBox="0 0 25 24" fill="none" xmlns="http://www.w3.org/2000/svg">
<path d="M24.4999 12.2733C24.5009 11.4556 24.4333 10.6393 24.2979 9.83337H13.2334V14.4549H19.5706C19.4409 15.193 19.1665 15.8966 18.7637 16.5233C18.361 17.15 17.8384 17.6868 17.2274 18.1014V21.1013H21.0095C23.224 19.013 24.4999 15.9248 24.4999 12.2733Z" fill="#4285F4"/>
<path d="M13.2318 23.9997C16.3979 23.9997 19.0638 22.9364 21.0079 21.1032L17.2257 18.1033C16.1731 18.8333 14.8173 19.2499 13.2318 19.2499C10.1715 19.2499 7.57405 17.14 6.64522 14.2968H2.74902V17.3883C3.72555 19.3757 5.22293 21.0464 7.07402 22.2139C8.9251 23.3813 11.057 23.9996 13.2318 23.9997Z" fill="#34A853"/>
<path d="M6.64551 14.2968C6.15447 12.8069 6.15447 11.1935 6.64551 9.70362V6.61206H2.74931C1.92783 8.28392 1.5 10.1291 1.5 12.0002C1.5 13.8713 1.92783 15.7165 2.74931 17.3883L6.64551 14.2968Z" fill="#FBBC04"/>
<path d="M13.2318 4.75037C14.9049 4.72241 16.5217 5.36898 17.7325 6.55031L21.0812 3.12543C18.9578 1.08563 16.1447 -0.034254 13.2318 0.000543143C11.057 0.000644515 8.9251 0.618945 7.07402 1.78642C5.22293 2.95389 3.72555 4.62458 2.74902 6.61197L6.64522 9.70353C7.57405 6.86029 10.1715 4.75037 13.2318 4.75037Z" fill="#EA4335"/>
</svg>
