<svg width="25" height="24" viewBox="0 0 25 24" fill="none" xmlns="http://www.w3.org/2000/svg">
    <path fill-rule="evenodd" clip-rule="evenodd" d="M20.3 16C20.3015 17.4047 19.9425 18.785 19.2589 20.0022C18.5753 21.2194 17.5913 22.2306 16.4058 22.934C15.2203 23.6374 13.8751 24.0082 12.5055 24.0092C11.136 24.0102 9.79035 23.6413 8.60388 22.9397C7.41741 22.2381 6.4319 21.2284 5.7466 20.0122C5.06131 18.796 4.70035 17.4162 4.69995 16.0115C4.69956 14.6068 5.05973 13.2268 5.74434 12.0102C6.42895 10.7936 7.41387 9.78334 8.59995 9.08099V4C8.59995 2.93913 9.0109 1.92172 9.74229 1.17157C10.4737 0.421424 11.4656 0 12.5 0C13.5343 0 14.5262 0.421424 15.2576 1.17157C15.989 1.92172 16.4 2.93913 16.4 4V9.07999C17.5851 9.78082 18.5694 10.7893 19.254 12.004C19.9386 13.2188 20.2993 14.5969 20.3 16ZM8.59995 9.08099L8.72671 9.00201H8.59995V9.08099ZM12.5 2.00201C11.9828 2.00201 11.4868 2.21273 11.1211 2.5878C10.7554 2.96287 10.55 3.47158 10.55 4.00201V8.26199C11.8275 7.91132 13.1724 7.91132 14.45 8.26199V4C14.45 3.46957 14.2445 2.96086 13.8788 2.58578C13.5131 2.21071 13.0171 2 12.5 2V2.00201ZM16.4 9.00201H16.2732L16.4 9.08099V9V9.00201ZM12.5 9.98901C11.3405 9.98862 10.2071 10.3409 9.24289 11.0012C8.27868 11.6616 7.52702 12.6004 7.08306 13.6989C6.6391 14.7974 6.52278 16.0063 6.74874 17.1727C6.97469 18.339 7.53282 19.4104 8.35251 20.2514C9.17221 21.0924 10.2166 21.6652 11.3537 21.8973C12.4908 22.1295 13.6695 22.0105 14.7407 21.5555C15.8119 21.1006 16.7276 20.33 17.3717 19.3413C18.0159 18.3526 18.3597 17.1902 18.3597 16.001C18.3582 14.4072 17.7404 12.879 16.6419 11.7516C15.5434 10.6242 14.0539 9.98965 12.5 9.987V9.98901ZM12.5 18.002C12.2414 18.002 11.9933 17.8966 11.8105 17.7091C11.6276 17.5216 11.525 17.2672 11.525 17.002V15.002C11.525 14.7368 11.6276 14.4824 11.8105 14.2949C11.9933 14.1074 12.2414 14.002 12.5 14.002C12.7585 14.002 13.0066 14.1074 13.1894 14.2949C13.3723 14.4824 13.475 14.7368 13.475 15.002V17.002C13.4744 17.2669 13.3715 17.5207 13.1887 17.7078C13.0059 17.8949 12.7582 18 12.5 18V18.002Z" fill="currentColor"/>
</svg>
