<svg width="50" height="32" viewBox="0 0 50 32" fill="none" xmlns="http://www.w3.org/2000/svg">
    <g>
        <path d="M6.00006 9.00192H2.11098C1.84485 9.00192 1.61852 9.19527 1.577 9.45799L0.00408279 19.4306C-0.0271937 19.6274 0.125207 19.8048 0.324808 19.8048H2.18149C2.44763 19.8048 2.67396 19.6115 2.71547 19.3482L3.13969 16.6584C3.18063 16.3951 3.40753 16.2018 3.67309 16.2018H4.90425C7.46607 16.2018 8.9446 14.9621 9.33072 12.5055C9.50473 11.4307 9.33811 10.5862 8.83485 9.99481C8.28211 9.34539 7.30173 9.00192 6.00006 9.00192ZM6.44874 12.6442C6.23606 14.0397 5.16981 14.0397 4.13883 14.0397H3.55197L3.96368 11.4335C3.98813 11.276 4.12461 11.16 4.28384 11.16H4.55282C5.25511 11.16 5.91761 11.16 6.25994 11.5603C6.46409 11.7992 6.52664 12.154 6.44874 12.6442Z" fill="#253B80"/>
        <path d="M17.625 12.5979H15.7626C15.6039 12.5979 15.4669 12.7139 15.4424 12.8714L15.36 13.3923L15.2298 13.2035C14.8266 12.6184 13.9275 12.4228 13.0302 12.4228C10.9722 12.4228 9.21445 13.9815 8.87212 16.168C8.69413 17.2587 8.94718 18.3016 9.56589 19.0289C10.1334 19.6977 10.9455 19.9763 11.9116 19.9763C13.5698 19.9763 14.4894 18.9101 14.4894 18.9101L14.4063 19.4275C14.3751 19.6254 14.5275 19.8029 14.7259 19.8029H16.4035C16.6702 19.8029 16.8954 19.6095 16.9375 19.3462L17.944 12.9721C17.9758 12.7759 17.824 12.5979 17.625 12.5979ZM15.029 16.2226C14.8493 17.2865 14.0049 18.0008 12.9278 18.0008C12.387 18.0008 11.9548 17.8273 11.6773 17.4986C11.4021 17.1722 11.2975 16.7076 11.385 16.1902C11.5528 15.1353 12.4115 14.3977 13.472 14.3977C14.0009 14.3977 14.4308 14.5734 14.714 14.905C14.9978 15.2399 15.1103 15.7074 15.029 16.2226Z" fill="#253B80"/>
        <path d="M27.544 12.5979H25.6725C25.4939 12.5979 25.3262 12.6866 25.2249 12.835L22.6438 16.6371L21.5497 12.9835C21.4809 12.7549 21.2699 12.5979 21.0311 12.5979H19.192C18.9685 12.5979 18.8133 12.8163 18.8844 13.0267L20.9458 19.0761L19.0078 21.8119C18.8554 22.0275 19.0089 22.3237 19.2722 22.3237H21.1414C21.3188 22.3237 21.4849 22.2373 21.5855 22.0917L27.8101 13.1069C27.9591 12.8919 27.8061 12.5979 27.544 12.5979Z" fill="#253B80"/>
        <path d="M33.7403 9.00055H29.8506C29.5851 9.00055 29.3588 9.19389 29.3172 9.45662L27.7443 19.4293C27.713 19.626 27.8654 19.8034 28.0639 19.8034H30.0599C30.2453 19.8034 30.404 19.6681 30.433 19.4838L30.8794 16.657C30.9203 16.3937 31.1472 16.2004 31.4128 16.2004H32.6434C35.2057 16.2004 36.6837 14.9607 37.0704 12.5041C37.245 11.4293 37.0772 10.5848 36.5739 9.99343C36.0218 9.34402 35.042 9.00055 33.7403 9.00055ZM34.189 12.6428C33.9769 14.0383 32.9106 14.0383 31.8791 14.0383H31.2928L31.7051 11.4322C31.7295 11.2746 31.8648 11.1586 32.0246 11.1586H32.2936C32.9954 11.1586 33.6584 11.1586 34.0007 11.559C34.2049 11.7978 34.2669 12.1526 34.189 12.6428Z" fill="#179BD7"/>
        <path d="M45.3645 12.5979H43.5033C43.3435 12.5979 43.2076 12.7139 43.1837 12.8714L43.1012 13.3923L42.9704 13.2035C42.5672 12.6184 41.6687 12.4228 40.7714 12.4228C38.7134 12.4228 36.9562 13.9815 36.6139 16.168C36.4365 17.2587 36.6884 18.3016 37.3071 19.0289C37.8758 19.6977 38.6867 19.9763 39.6528 19.9763C41.3111 19.9763 42.2306 18.9101 42.2306 18.9101L42.1476 19.4275C42.1163 19.6254 42.2687 19.8029 42.4683 19.8029H44.1453C44.4108 19.8029 44.6372 19.6095 44.6787 19.3462L45.6858 12.9721C45.7165 12.7759 45.5641 12.5979 45.3645 12.5979ZM42.7685 16.2226C42.59 17.2865 41.7444 18.0008 40.6673 18.0008C40.1277 18.0008 39.6944 17.8273 39.4168 17.4986C39.1416 17.1722 39.0381 16.7076 39.1246 16.1902C39.2934 15.1353 40.151 14.3977 41.2115 14.3977C41.7404 14.3977 42.1703 14.5734 42.4535 14.905C42.7384 15.2399 42.851 15.7074 42.7685 16.2226Z" fill="#179BD7"/>
        <path d="M47.56 9.2741L45.9638 19.4293C45.9325 19.626 46.0849 19.8035 46.2834 19.8035H47.8882C48.1549 19.8035 48.3812 19.6101 48.4221 19.3468L49.9962 9.37475C50.0275 9.17799 49.8751 9 49.6766 9H47.8796C47.721 9.00057 47.5845 9.11658 47.56 9.2741Z" fill="#179BD7"/>
    </g>
</svg>
